<svg xmlns="http://www.w3.org/2000/svg" xmlns:xlink="http://www.w3.org/1999/xlink" contentStyleType="text/css" height="1267px" preserveAspectRatio="none" style="width:278px;height:1267px;background:#FFFFFF;" version="1.1" viewBox="0 0 278 1267" width="278px" zoomAndPan="magnify"><title>GET /departments/{id}</title><defs/><g><text fill="#000000" font-family="sans-serif" font-size="14" font-weight="bold" lengthAdjust="spacing" textLength="147.8066" x="63.7185" y="34.5332">GET /departments/{id}</text><ellipse cx="130.1218" cy="58.6094" fill="#222222" rx="10" ry="10" style="stroke:#222222;stroke-width:1;"/><rect fill="#FEFECE" height="33.8359" rx="12.5" ry="12.5" style="stroke:#333333;stroke-width:0.5;" width="62.5659" x="98.8389" y="88.6094"/><line style="stroke:#333333;stroke-width:1;" x1="98.8389" x2="108.8389" y1="105.5273" y2="105.5273"/><line style="stroke:#333333;stroke-width:1;" x1="98.8389" x2="108.8389" y1="107.5273" y2="107.5273"/><text fill="#000000" font-family="sans-serif" font-size="11" lengthAdjust="spacing" textLength="36.4536" x="111.895" y="109.5283">&#1047;&#1072;&#1087;&#1088;&#1086;&#1089;</text><line style="stroke:#333333;stroke-width:1;" x1="151.4048" x2="161.4048" y1="105.5273" y2="105.5273"/><line style="stroke:#333333;stroke-width:1;" x1="151.4048" x2="161.4048" y1="107.5273" y2="107.5273"/><rect fill="#FEFECE" height="33.8359" rx="12.5" ry="12.5" style="stroke:#333333;stroke-width:0.5;" width="112.2002" x="74.0217" y="142.4453"/><text fill="#000000" font-family="sans-serif" font-size="11" lengthAdjust="spacing" textLength="92.2002" x="84.0217" y="163.8643">&#1055;&#1072;&#1088;&#1089;&#1080;&#1085;&#1075; id &#1080;&#1079; path</text><rect fill="#FFC0CB" height="33.8359" rx="12.5" ry="12.5" style="stroke:#333333;stroke-width:0.5;" width="108.6445" x="75.7996" y="245.1992"/><text fill="#000000" font-family="sans-serif" font-size="11" font-weight="bold" lengthAdjust="spacing" textLength="88.6445" x="85.7996" y="266.6182">400 Bad Request</text><ellipse cx="130.1218" cy="318.6172" fill="none" rx="11" ry="11" style="stroke:#222222;stroke-width:1;"/><ellipse cx="130.1218" cy="318.6172" fill="#222222" rx="6" ry="6" style="stroke:#222222;stroke-width:1;"/><polygon fill="#FEFECE" points="51.5186,196.2813,208.7251,196.2813,220.7251,208.2813,208.7251,220.2813,51.5186,220.2813,39.5186,208.2813,51.5186,196.2813" style="stroke:#333333;stroke-width:0.5;"/><text fill="#000000" font-family="sans-serif" font-size="11" lengthAdjust="spacing" textLength="17.2305" x="134.1218" y="231.7002">&#1085;&#1077;&#1090;</text><text fill="#000000" font-family="sans-serif" font-size="11" lengthAdjust="spacing" textLength="157.2065" x="51.5186" y="212.7822">id &#1074; &#1076;&#1080;&#1072;&#1087;&#1072;&#1079;&#1086;&#1085;&#1077; 1..2147483647?</text><rect fill="#FFC0CB" height="33.8359" rx="12.5" ry="12.5" style="stroke:#333333;stroke-width:0.5;" width="108.6445" x="75.7996" y="420.5352"/><text fill="#000000" font-family="sans-serif" font-size="11" font-weight="bold" lengthAdjust="spacing" textLength="88.6445" x="85.7996" y="441.9541">400 Bad Request</text><ellipse cx="130.1218" cy="493.9531" fill="none" rx="11" ry="11" style="stroke:#222222;stroke-width:1;"/><ellipse cx="130.1218" cy="493.9531" fill="#222222" rx="6" ry="6" style="stroke:#222222;stroke-width:1;"/><polygon fill="#FEFECE" points="32,371.6172,228.2437,371.6172,240.2437,383.6172,228.2437,395.6172,32,395.6172,20,383.6172,32,371.6172" style="stroke:#333333;stroke-width:0.5;"/><text fill="#000000" font-family="sans-serif" font-size="11" lengthAdjust="spacing" textLength="17.2305" x="134.1218" y="407.0361">&#1085;&#1077;&#1090;</text><text fill="#000000" font-family="sans-serif" font-size="11" lengthAdjust="spacing" textLength="196.2437" x="32" y="388.1182">depth &#1080; include_employees &#1082;&#1086;&#1088;&#1088;&#1077;&#1082;&#1090;&#1085;&#1099;?</text><rect fill="#FFC0CB" height="33.8359" rx="12.5" ry="12.5" style="stroke:#333333;stroke-width:0.5;" width="153.8853" x="53.1792" y="595.8711"/><text fill="#000000" font-family="sans-serif" font-size="11" font-weight="bold" lengthAdjust="spacing" textLength="133.8853" x="63.1792" y="617.29">422 Unprocessable Entity</text><ellipse cx="130.1218" cy="669.2891" fill="none" rx="11" ry="11" style="stroke:#222222;stroke-width:1;"/><ellipse cx="130.1218" cy="669.2891" fill="#222222" rx="6" ry="6" style="stroke:#222222;stroke-width:1;"/><polygon fill="#FEFECE" points="69.5654,546.9531,190.6782,546.9531,202.6782,558.9531,190.6782,570.9531,69.5654,570.9531,57.5654,558.9531,69.5654,546.9531" style="stroke:#333333;stroke-width:0.5;"/><text fill="#000000" font-family="sans-serif" font-size="11" lengthAdjust="spacing" textLength="17.2305" x="134.1218" y="582.3721">&#1085;&#1077;&#1090;</text><text fill="#000000" font-family="sans-serif" font-size="11" lengthAdjust="spacing" textLength="121.1128" x="69.5654" y="563.4541">depth &#1074; &#1076;&#1080;&#1072;&#1087;&#1072;&#1079;&#1086;&#1085;&#1077; 1..5?</text><rect fill="#FFC0CB" height="33.8359" rx="12.5" ry="12.5" style="stroke:#333333;stroke-width:0.5;" width="96.3877" x="81.928" y="771.207"/><text fill="#000000" font-family="sans-serif" font-size="11" font-weight="bold" lengthAdjust="spacing" textLength="76.3877" x="91.928" y="792.626">404 Not Found</text><ellipse cx="130.1218" cy="844.625" fill="none" rx="11" ry="11" style="stroke:#222222;stroke-width:1;"/><ellipse cx="130.1218" cy="844.625" fill="#222222" rx="6" ry="6" style="stroke:#222222;stroke-width:1;"/><polygon fill="#FEFECE" points="64.4119,722.2891,195.8318,722.2891,207.8318,734.2891,195.8318,746.2891,64.4119,746.2891,52.4119,734.2891,64.4119,722.2891" style="stroke:#333333;stroke-width:0.5;"/><text fill="#000000" font-family="sans-serif" font-size="11" lengthAdjust="spacing" textLength="17.2305" x="134.1218" y="757.708">&#1085;&#1077;&#1090;</text><text fill="#000000" font-family="sans-serif" font-size="11" lengthAdjust="spacing" textLength="131.4199" x="64.4119" y="738.79">&#1087;&#1086;&#1076;&#1088;&#1072;&#1079;&#1076;&#1077;&#1083;&#1077;&#1085;&#1080;&#1077; &#1085;&#1072;&#1081;&#1076;&#1077;&#1085;&#1086;?</text><rect fill="#FEFECE" height="33.8359" rx="12.5" ry="12.5" style="stroke:#333333;stroke-width:0.5;" width="62.9365" x="98.6536" y="897.625"/><line style="stroke:#333333;stroke-width:1;" x1="98.6536" x2="108.6536" y1="914.543" y2="914.543"/><line style="stroke:#333333;stroke-width:1;" x1="98.6536" x2="108.6536" y1="916.543" y2="916.543"/><text fill="#000000" font-family="sans-serif" font-size="11" lengthAdjust="spacing" textLength="36.8242" x="111.7097" y="918.5439">&#1063;&#1090;&#1077;&#1085;&#1080;&#1077;</text><line style="stroke:#333333;stroke-width:1;" x1="151.5901" x2="161.5901" y1="914.543" y2="914.543"/><line style="stroke:#333333;stroke-width:1;" x1="151.5901" x2="161.5901" y1="916.543" y2="916.543"/><rect fill="#FEFECE" height="33.8359" rx="12.5" ry="12.5" style="stroke:#333333;stroke-width:0.5;" width="163.854" x="48.1948" y="951.4609"/><text fill="#000000" font-family="sans-serif" font-size="11" lengthAdjust="spacing" textLength="143.854" x="58.1948" y="972.8799">&#1063;&#1090;&#1077;&#1085;&#1080;&#1077; children &#1080; employees</text><rect fill="#FFC0CB" height="33.8359" rx="12.5" ry="12.5" style="stroke:#333333;stroke-width:0.5;" width="148.4014" x="55.9211" y="1054.2148"/><text fill="#000000" font-family="sans-serif" font-size="11" font-weight="bold" lengthAdjust="spacing" textLength="128.4014" x="65.9211" y="1075.6338">500 Internal Server Error</text><ellipse cx="130.1218" cy="1127.6328" fill="none" rx="11" ry="11" style="stroke:#222222;stroke-width:1;"/><ellipse cx="130.1218" cy="1127.6328" fill="#222222" rx="6" ry="6" style="stroke:#222222;stroke-width:1;"/><polygon fill="#FEFECE" points="88.845,1005.2969,171.3987,1005.2969,183.3987,1017.2969,171.3987,1029.2969,88.845,1029.2969,76.845,1017.2969,88.845,1005.2969" style="stroke:#333333;stroke-width:0.5;"/><text fill="#000000" font-family="sans-serif" font-size="11" lengthAdjust="spacing" textLength="12.5361" x="134.1218" y="1040.7158">&#1076;&#1072;</text><text fill="#000000" font-family="sans-serif" font-size="11" lengthAdjust="spacing" textLength="82.5537" x="88.845" y="1021.7979">&#1086;&#1096;&#1080;&#1073;&#1082;&#1072; &#1095;&#1090;&#1077;&#1085;&#1080;&#1103;?</text><rect fill="#FEFECE" height="33.8359" rx="12.5" ry="12.5" style="stroke:#333333;stroke-width:0.5;" width="57.9092" x="101.1672" y="1180.6328"/><text fill="#000000" font-family="sans-serif" font-size="11" font-weight="bold" lengthAdjust="spacing" textLength="37.9092" x="111.1672" y="1202.0518">200 OK</text><ellipse cx="130.1218" cy="1245.4688" fill="none" rx="11" ry="11" style="stroke:#222222;stroke-width:1;"/><ellipse cx="130.1218" cy="1245.4688" fill="#222222" rx="6" ry="6" style="stroke:#222222;stroke-width:1;"/><line style="stroke:#181818;stroke-width:1;" x1="130.1218" x2="130.1218" y1="68.6094" y2="88.6094"/><polygon fill="#181818" points="126.1218,78.6094,130.1218,88.6094,134.1218,78.6094,130.1218,82.6094" style="stroke:#181818;stroke-width:1;"/><line style="stroke:#181818;stroke-width:1;" x1="130.1218" x2="130.1218" y1="122.4453" y2="142.4453"/><polygon fill="#181818" points="126.1218,132.4453,130.1218,142.4453,134.1218,132.4453,130.1218,136.4453" style="stroke:#181818;stroke-width:1;"/><line style="stroke:#181818;stroke-width:1;" x1="130.1218" x2="130.1218" y1="279.0352" y2="307.6172"/><polygon fill="#181818" points="126.1218,297.6172,130.1218,307.6172,134.1218,297.6172,130.1218,301.6172" style="stroke:#181818;stroke-width:1;"/><line style="stroke:#181818;stroke-width:1;" x1="130.1218" x2="130.1218" y1="220.2813" y2="245.1992"/><polygon fill="#181818" points="126.1218,235.1992,130.1218,245.1992,134.1218,235.1992,130.1218,239.1992" style="stroke:#181818;stroke-width:1;"/><line style="stroke:#181818;stroke-width:1;" x1="220.7251" x2="232.7251" y1="208.2813" y2="208.2813"/><polygon fill="#181818" points="228.7251,277.6172,232.7251,287.6172,236.7251,277.6172,232.7251,281.6172" style="stroke:#181818;stroke-width:1;"/><line style="stroke:#181818;stroke-width:1;" x1="232.7251" x2="232.7251" y1="208.2813" y2="351.6172"/><line style="stroke:#181818;stroke-width:1;" x1="232.7251" x2="130.1218" y1="351.6172" y2="351.6172"/><line style="stroke:#181818;stroke-width:1;" x1="130.1218" x2="130.1218" y1="351.6172" y2="371.6172"/><polygon fill="#181818" points="126.1218,361.6172,130.1218,371.6172,134.1218,361.6172,130.1218,365.6172" style="stroke:#181818;stroke-width:1;"/><line style="stroke:#181818;stroke-width:1;" x1="130.1218" x2="130.1218" y1="176.2813" y2="196.2813"/><polygon fill="#181818" points="126.1218,186.2813,130.1218,196.2813,134.1218,186.2813,130.1218,190.2813" style="stroke:#181818;stroke-width:1;"/><line style="stroke:#181818;stroke-width:1;" x1="130.1218" x2="130.1218" y1="454.3711" y2="482.9531"/><polygon fill="#181818" points="126.1218,472.9531,130.1218,482.9531,134.1218,472.9531,130.1218,476.9531" style="stroke:#181818;stroke-width:1;"/><line style="stroke:#181818;stroke-width:1;" x1="130.1218" x2="130.1218" y1="395.6172" y2="420.5352"/><polygon fill="#181818" points="126.1218,410.5352,130.1218,420.5352,134.1218,410.5352,130.1218,414.5352" style="stroke:#181818;stroke-width:1;"/><line style="stroke:#181818;stroke-width:1;" x1="240.2437" x2="252.2437" y1="383.6172" y2="383.6172"/><polygon fill="#181818" points="248.2437,452.9531,252.2437,462.9531,256.2437,452.9531,252.2437,456.9531" style="stroke:#181818;stroke-width:1;"/><line style="stroke:#181818;stroke-width:1;" x1="252.2437" x2="252.2437" y1="383.6172" y2="526.9531"/><line style="stroke:#181818;stroke-width:1;" x1="252.2437" x2="130.1218" y1="526.9531" y2="526.9531"/><line style="stroke:#181818;stroke-width:1;" x1="130.1218" x2="130.1218" y1="526.9531" y2="546.9531"/><polygon fill="#181818" points="126.1218,536.9531,130.1218,546.9531,134.1218,536.9531,130.1218,540.9531" style="stroke:#181818;stroke-width:1;"/><line style="stroke:#181818;stroke-width:1;" x1="130.1218" x2="130.1218" y1="629.707" y2="658.2891"/><polygon fill="#181818" points="126.1218,648.2891,130.1218,658.2891,134.1218,648.2891,130.1218,652.2891" style="stroke:#181818;stroke-width:1;"/><line style="stroke:#181818;stroke-width:1;" x1="130.1218" x2="130.1218" y1="570.9531" y2="595.8711"/><polygon fill="#181818" points="126.1218,585.8711,130.1218,595.8711,134.1218,585.8711,130.1218,589.8711" style="stroke:#181818;stroke-width:1;"/><line style="stroke:#181818;stroke-width:1;" x1="202.6782" x2="217.0645" y1="558.9531" y2="558.9531"/><polygon fill="#181818" points="213.0645,628.2891,217.0645,638.2891,221.0645,628.2891,217.0645,632.2891" style="stroke:#181818;stroke-width:1;"/><line style="stroke:#181818;stroke-width:1;" x1="217.0645" x2="217.0645" y1="558.9531" y2="702.2891"/><line style="stroke:#181818;stroke-width:1;" x1="217.0645" x2="130.1218" y1="702.2891" y2="702.2891"/><line style="stroke:#181818;stroke-width:1;" x1="130.1218" x2="130.1218" y1="702.2891" y2="722.2891"/><polygon fill="#181818" points="126.1218,712.2891,130.1218,722.2891,134.1218,712.2891,130.1218,716.2891" style="stroke:#181818;stroke-width:1;"/><line style="stroke:#181818;stroke-width:1;" x1="130.1218" x2="130.1218" y1="805.043" y2="833.625"/><polygon fill="#181818" points="126.1218,823.625,130.1218,833.625,134.1218,823.625,130.1218,827.625" style="stroke:#181818;stroke-width:1;"/><line style="stroke:#181818;stroke-width:1;" x1="130.1218" x2="130.1218" y1="746.2891" y2="771.207"/><polygon fill="#181818" points="126.1218,761.207,130.1218,771.207,134.1218,761.207,130.1218,765.207" style="stroke:#181818;stroke-width:1;"/><line style="stroke:#181818;stroke-width:1;" x1="207.8318" x2="219.8318" y1="734.2891" y2="734.2891"/><polygon fill="#181818" points="215.8318,803.625,219.8318,813.625,223.8318,803.625,219.8318,807.625" style="stroke:#181818;stroke-width:1;"/><line style="stroke:#181818;stroke-width:1;" x1="219.8318" x2="219.8318" y1="734.2891" y2="877.625"/><line style="stroke:#181818;stroke-width:1;" x1="219.8318" x2="130.1218" y1="877.625" y2="877.625"/><line style="stroke:#181818;stroke-width:1;" x1="130.1218" x2="130.1218" y1="877.625" y2="897.625"/><polygon fill="#181818" points="126.1218,887.625,130.1218,897.625,134.1218,887.625,130.1218,891.625" style="stroke:#181818;stroke-width:1;"/><line style="stroke:#181818;stroke-width:1;" x1="130.1218" x2="130.1218" y1="931.4609" y2="951.4609"/><polygon fill="#181818" points="126.1218,941.4609,130.1218,951.4609,134.1218,941.4609,130.1218,945.4609" style="stroke:#181818;stroke-width:1;"/><line style="stroke:#181818;stroke-width:1;" x1="130.1218" x2="130.1218" y1="1088.0508" y2="1116.6328"/><polygon fill="#181818" points="126.1218,1106.6328,130.1218,1116.6328,134.1218,1106.6328,130.1218,1110.6328" style="stroke:#181818;stroke-width:1;"/><line style="stroke:#181818;stroke-width:1;" x1="130.1218" x2="130.1218" y1="1029.2969" y2="1054.2148"/><polygon fill="#181818" points="126.1218,1044.2148,130.1218,1054.2148,134.1218,1044.2148,130.1218,1048.2148" style="stroke:#181818;stroke-width:1;"/><line style="stroke:#181818;stroke-width:1;" x1="183.3987" x2="214.3225" y1="1017.2969" y2="1017.2969"/><polygon fill="#181818" points="210.3225,1086.6328,214.3225,1096.6328,218.3225,1086.6328,214.3225,1090.6328" style="stroke:#181818;stroke-width:1;"/><line style="stroke:#181818;stroke-width:1;" x1="214.3225" x2="214.3225" y1="1017.2969" y2="1160.6328"/><line style="stroke:#181818;stroke-width:1;" x1="214.3225" x2="130.1218" y1="1160.6328" y2="1160.6328"/><line style="stroke:#181818;stroke-width:1;" x1="130.1218" x2="130.1218" y1="1160.6328" y2="1180.6328"/><polygon fill="#181818" points="126.1218,1170.6328,130.1218,1180.6328,134.1218,1170.6328,130.1218,1174.6328" style="stroke:#181818;stroke-width:1;"/><line style="stroke:#181818;stroke-width:1;" x1="130.1218" x2="130.1218" y1="985.2969" y2="1005.2969"/><polygon fill="#181818" points="126.1218,995.2969,130.1218,1005.2969,134.1218,995.2969,130.1218,999.2969" style="stroke:#181818;stroke-width:1;"/><line style="stroke:#181818;stroke-width:1;" x1="130.1218" x2="130.1218" y1="1214.4688" y2="1234.4688"/><polygon fill="#181818" points="126.1218,1224.4688,130.1218,1234.4688,134.1218,1224.4688,130.1218,1228.4688" style="stroke:#181818;stroke-width:1;"/><!--SRC=[hL51QnD16BtFh_YWbtGFRPDiZIG4mRAHKb0nzLpMdQzco6PcdPqKQX7INYfuyDXZZxrkDI5QIVmBt_mZlqqJBLXxyZ3iyhwPzzxtdbCkHNWMxSEcn2osRe3QvPidIduG8kyhpLWyW3XnwaYvOpWH04_ZfF_Mcg6MEoOr5jOwKIVQYSg9iHBj4gtNwmnrZ7PTzHwXMXKbfMCD8PhjDj055VJJZsZkJw7TReacNLBXH_wKlj6CleAIm7zJo6BNQmcX3g5IGb-0neppMpvJclFT2LGtDchLi14-hZyA6q_MmVLGGwKS-RDrjh7sKkb-CmZ2hItsB-4LlXjYxeAWnSFScKoWbkhmLeMJS3tM1gMJT2Zn00TPQeuHSw0RjZjYqnEwyMSqyv_-azY_jjf-YBzMWzSwioR1F8_VS96HTjpI_KBCFASnMo_vnxp03puprfm0VmhwlW1dD7zmen2U6yUjSlj_oonglU9SLiItjTv5afvAfMLsZlTthCjsETgFVEcQGox0dwzU-Sz_78sfkEjdcnFUrGwjZbFeeZr22v6rnjxZBGXgVFl5NZbQ37u1]--></g></svg>